<svg data-v-423bf9ae="" xmlns="http://www.w3.org/2000/svg" viewBox="0 0 512.3095351303251 164" class="iconAbove"><!----><!----><!----><g data-v-423bf9ae="" id="aa52a9fc-3aef-4629-8005-16623ee0beea" fill="black" transform="matrix(4.480188087323368,0,0,4.480188087323368,-3.7633521151076934,71.4155891340231)"><path d="M6.75 17.60L0.84 17.60L0.84 7.24L2.47 7.24L2.47 16.02L6.75 16.02L6.75 17.60ZM8.89 15.74L8.89 15.74L8.89 15.74Q8.89 16.14 9.09 16.32L9.09 16.32L9.09 16.32Q9.29 16.50 9.58 16.50L9.58 16.50L9.58 16.50Q9.88 16.50 10.02 16.47L10.02 16.47L10.02 16.47Q10.17 16.43 10.32 16.37L10.32 16.37L10.57 16.24L10.57 16.24Q10.68 16.17 10.81 16.06L10.81 16.06L11.01 15.91L11.01 15.91Q11.07 15.86 11.19 15.75L11.19 15.75L11.31 15.63L11.31 13.95L11.31 13.95Q9.78 14.30 9.31 14.71L9.31 14.71L9.31 14.71Q8.89 15.08 8.89 15.74ZM12.98 17.60L11.52 17.60L11.52 17.60Q11.31 17.47 11.31 16.96L11.31 16.96L11.18 17.11L11.18 17.11Q10.60 17.74 9.50 17.74L9.50 17.74L9.50 17.74Q8.18 17.74 7.68 16.80L7.68 16.80L7.68 16.80Q7.43 16.34 7.43 15.73L7.43 15.73L7.43 15.73Q7.43 15.12 7.65 14.65L7.65 14.65L7.65 14.65Q7.86 14.17 8.35 13.81L8.35 13.81L8.35 13.81Q9.23 13.15 11.31 12.74L11.31 12.74L11.31 12.74Q11.31 12.25 11.28 12.14L11.28 12.14L11.28 12.14Q11.25 12.03 11.21 11.94L11.21 11.94L11.21 11.94Q11.18 11.84 11.12 11.79L11.12 11.79L11.12 11.79Q11.07 11.74 10.99 11.68L10.99 11.68L10.99 11.68Q10.90 11.61 10.79 11.59L10.79 11.59L10.79 11.59Q10.53 11.52 10.20 11.52L10.20 11.52L10.20 11.52Q9.88 11.52 9.59 11.62L9.59 11.62L9.59 11.62Q9.31 11.72 9.14 11.84L9.14 11.84L9.14 11.84Q8.98 11.96 8.84 12.13L8.84 12.13L8.84 12.13Q8.66 12.35 8.59 12.51L8.59 12.51L7.63 11.92L7.63 11.92Q7.93 11.30 8.15 11.09L8.15 11.09L8.15 11.09Q8.37 10.88 8.58 10.73L8.58 10.73L8.58 10.73Q8.79 10.58 9.03 10.49L9.03 10.49L9.03 10.49Q9.60 10.28 10.20 10.28L10.20 10.28L10.20 10.28Q10.79 10.28 11.15 10.35L11.15 10.35L11.15 10.35Q11.50 10.41 11.82 10.58L11.82 10.58L11.82 10.58Q12.13 10.75 12.34 11.03L12.34 11.03L12.34 11.03Q12.78 11.63 12.78 12.80L12.78 12.80L12.78 16.58L12.78 16.58Q12.78 16.77 12.85 17.12L12.85 17.12L12.85 17.12Q12.92 17.47 12.98 17.60L12.98 17.60ZM15.69 17.16L13.27 10.38L14.90 10.38L16.41 14.71L17.77 10.38L19.39 10.38L16.99 17.81L16.99 17.81Q16.63 18.94 16.39 19.29L16.39 19.29L16.39 19.29Q16.15 19.65 15.95 19.85L15.95 19.85L15.95 19.85Q15.76 20.06 15.53 20.18L15.53 20.18L15.53 20.18Q14.81 20.58 13.41 20.37L13.41 20.37L13.41 20.37Q13.35 20.36 13.35 20.36L13.35 20.36L13.42 19.00L13.42 19.00Q13.67 19.11 14.09 19.11L14.09 19.11L14.09 19.11Q14.50 19.11 14.75 19.00L14.75 19.00L14.75 19.00Q15.00 18.89 15.15 18.72L15.15 18.72L15.15 18.72Q15.31 18.55 15.42 18.34L15.42 18.34L15.42 18.34Q15.52 18.14 15.58 17.92L15.58 17.92L15.58 17.92Q15.68 17.51 15.69 17.16L15.69 17.16ZM20.62 11.62L19.54 11.62L19.54 10.38L20.62 10.38L20.62 7.75L22.08 7.75L22.08 10.38L23.59 10.38L23.59 11.62L22.08 11.62L22.08 15.49L22.08 15.49Q22.08 16.07 22.29 16.29L22.29 16.29L22.29 16.29Q22.50 16.50 22.99 16.50L22.99 16.50L22.99 16.50Q23.19 16.50 23.39 16.47L23.39 16.47L23.39 16.47Q23.59 16.45 23.59 16.44L23.59 16.44L23.59 17.47L23.59 17.47Q23.22 17.64 23.02 17.69L23.02 17.69L23.02 17.69Q22.82 17.74 22.53 17.74L22.53 17.74L22.53 17.74Q22.24 17.74 22.10 17.73L22.10 17.73L22.10 17.73Q21.96 17.73 21.76 17.68L21.76 17.68L21.76 17.68Q21.55 17.64 21.41 17.57L21.41 17.57L21.41 17.57Q21.26 17.50 21.10 17.36L21.10 17.36L21.10 17.36Q20.95 17.23 20.84 17.04L20.84 17.04L20.84 17.04Q20.62 16.60 20.62 15.90L20.62 15.90L20.62 11.62ZM25.53 13.16L25.53 13.16L25.53 13.16Q25.49 13.52 25.49 13.94L25.49 13.94L25.49 13.94Q25.49 14.36 25.53 14.69L25.53 14.69L25.53 14.69Q25.57 15.03 25.68 15.36L25.68 15.36L25.68 15.36Q25.79 15.70 25.95 15.94L25.95 15.94L25.95 15.94Q26.32 16.49 26.99 16.49L26.99 16.49L26.99 16.49Q28.47 16.49 28.47 13.99L28.47 13.99L28.47 13.99Q28.47 12.53 28.03 11.96L28.03 11.96L28.03 11.96Q27.68 11.50 26.99 11.50L26.99 11.50L26.99 11.50Q25.72 11.50 25.53 13.16ZM24.03 13.99L24.03 13.99L24.03 13.99Q24.03 12.28 24.82 11.27L24.82 11.27L24.82 11.27Q25.61 10.26 26.99 10.26L26.99 10.26L26.99 10.26Q27.90 10.26 28.57 10.73L28.57 10.73L28.57 10.73Q29.93 11.68 29.93 13.99L29.93 13.99L29.93 13.99Q29.93 16.88 28.13 17.54L28.13 17.54L28.13 17.54Q27.63 17.73 26.99 17.73L26.99 17.73L26.99 17.73Q26.35 17.73 25.85 17.54L25.85 17.54L25.85 17.54Q25.34 17.36 25.01 17.03L25.01 17.03L25.01 17.03Q24.67 16.70 24.45 16.22L24.45 16.22L24.45 16.22Q24.03 15.33 24.03 13.99ZM36.44 12.19L36.44 12.19L36.44 17.60L34.97 17.60L34.97 12.57L34.97 12.57Q34.97 12.08 34.68 11.79L34.68 11.79L34.68 11.79Q34.38 11.50 33.97 11.50L33.97 11.50L33.97 11.50Q33.56 11.50 33.15 11.74L33.15 11.74L33.15 11.74Q32.75 11.98 32.55 12.22L32.55 12.22L32.55 17.60L31.09 17.60L31.09 10.38L32.55 10.38L32.55 11.15L32.55 11.15Q32.95 10.75 33.38 10.51L33.38 10.51L33.38 10.51Q33.82 10.26 34.40 10.26L34.40 10.26L34.40 10.26Q35.29 10.26 35.86 10.74L35.86 10.74L35.86 10.74Q36.44 11.22 36.44 12.19ZM41.13 13.70L41.13 13.70L41.13 13.70Q41.02 13.06 41.02 12.40L41.02 12.40L41.02 12.40Q41.02 11.74 41.13 11.11L41.13 11.11L41.13 11.11Q41.23 10.47 41.43 9.87L41.43 9.87L41.43 9.87Q41.63 9.26 41.96 8.75L41.96 8.75L41.96 8.75Q42.28 8.24 42.70 7.86L42.70 7.86L42.70 7.86Q43.59 7.05 44.91 7.05L44.91 7.05L44.91 7.05Q46.58 7.05 47.55 8.72L47.55 8.72L47.55 8.72Q48.02 9.54 48.19 10.40L48.19 10.40L48.19 10.40L46.76 10.79L46.76 10.79Q46.66 10.06 46.50 9.72L46.50 9.72L46.50 9.72Q46.35 9.38 46.20 9.15L46.20 9.15L46.20 9.15Q46.05 8.92 45.88 8.77L45.88 8.77L45.88 8.77Q45.45 8.42 44.92 8.42L44.92 8.42L44.92 8.42Q44.38 8.42 44.00 8.66L44.00 8.66L44.00 8.66Q43.61 8.91 43.37 9.30L43.37 9.30L43.37 9.30Q43.12 9.69 42.96 10.22L42.96 10.22L42.96 10.22Q42.66 11.19 42.66 12.41L42.66 12.41L42.66 12.41Q42.66 15.63 44.19 16.26L44.19 16.26L44.19 16.26Q44.52 16.40 44.88 16.40L44.88 16.40L44.88 16.40Q45.25 16.40 45.54 16.30L45.54 16.30L45.54 16.30Q45.83 16.21 46.03 16.05L46.03 16.05L46.03 16.05Q46.23 15.90 46.39 15.69L46.39 15.69L46.39 15.69Q46.54 15.48 46.63 15.26L46.63 15.26L46.63 15.26Q46.72 15.05 46.78 14.82L46.78 14.82L46.78 14.82Q46.88 14.42 46.88 14.08L46.88 14.08L48.41 14.29L48.41 14.29Q48.10 15.61 47.33 16.57L47.33 16.57L47.33 16.57Q46.36 17.77 44.89 17.77L44.89 17.77L44.89 17.77Q43.09 17.77 41.99 16.06L41.99 16.06L41.99 16.06Q41.36 15.09 41.13 13.70ZM50.87 17.60L49.40 17.60L49.40 10.38L50.87 10.38L50.87 17.60ZM50.96 9.75L49.30 9.75L49.30 8.09L50.96 8.09L50.96 9.75ZM52.83 11.62L51.76 11.62L51.76 10.38L52.83 10.38L52.83 7.75L54.30 7.75L54.30 10.38L55.81 10.38L55.81 11.62L54.30 11.62L54.30 15.49L54.30 15.49Q54.30 16.07 54.51 16.29L54.51 16.29L54.51 16.29Q54.71 16.50 55.21 16.50L55.21 16.50L55.21 16.50Q55.41 16.50 55.61 16.47L55.61 16.47L55.61 16.47Q55.81 16.45 55.81 16.44L55.81 16.44L55.81 17.47L55.81 17.47Q55.44 17.64 55.24 17.69L55.24 17.69L55.24 17.69Q55.04 17.74 54.75 17.74L54.75 17.74L54.75 17.74Q54.46 17.74 54.31 17.73L54.31 17.73L54.31 17.73Q54.17 17.73 53.97 17.68L53.97 17.68L53.97 17.68Q53.77 17.64 53.62 17.57L53.62 17.57L53.62 17.57Q53.48 17.50 53.32 17.36L53.32 17.36L53.32 17.36Q53.16 17.23 53.06 17.04L53.06 17.04L53.06 17.04Q52.83 16.60 52.83 15.90L52.83 15.90L52.83 11.62ZM58.28 17.16L55.86 10.38L57.48 10.38L59.00 14.71L60.35 10.38L61.98 10.38L59.58 17.81L59.58 17.81Q59.21 18.94 58.97 19.29L58.97 19.29L58.97 19.29Q58.73 19.65 58.54 19.85L58.54 19.85L58.54 19.85Q58.34 20.06 58.12 20.18L58.12 20.18L58.12 20.18Q57.40 20.58 56 20.37L56 20.37L56 20.37Q55.94 20.36 55.94 20.36L55.94 20.36L56.01 19.00L56.01 19.00Q56.26 19.11 56.67 19.11L56.67 19.11L56.67 19.11Q57.09 19.11 57.34 19.00L57.34 19.00L57.34 19.00Q57.59 18.89 57.74 18.72L57.74 18.72L57.74 18.72Q57.89 18.55 58.00 18.34L58.00 18.34L58.00 18.34Q58.11 18.14 58.17 17.92L58.17 17.92L58.17 17.92Q58.27 17.51 58.28 17.16L58.28 17.16ZM65.82 13.70L65.82 13.70L65.82 13.70Q65.71 13.06 65.71 12.40L65.71 12.40L65.71 12.40Q65.71 11.74 65.82 11.11L65.82 11.11L65.82 11.11Q65.92 10.47 66.12 9.87L66.12 9.87L66.12 9.87Q66.32 9.26 66.65 8.75L66.65 8.75L66.65 8.75Q66.97 8.24 67.39 7.86L67.39 7.86L67.39 7.86Q68.28 7.05 69.60 7.05L69.60 7.05L69.60 7.05Q71.27 7.05 72.24 8.72L72.24 8.72L72.24 8.72Q72.71 9.54 72.88 10.40L72.88 10.40L72.88 10.40L71.46 10.79L71.46 10.79Q71.35 10.06 71.20 9.72L71.20 9.72L71.20 9.72Q71.05 9.38 70.90 9.15L70.90 9.15L70.90 9.15Q70.75 8.92 70.57 8.77L70.57 8.77L70.57 8.77Q70.14 8.42 69.61 8.42L69.61 8.42L69.61 8.42Q69.07 8.42 68.69 8.66L68.69 8.66L68.69 8.66Q68.30 8.91 68.06 9.30L68.06 9.30L68.06 9.30Q67.81 9.69 67.65 10.22L67.65 10.22L67.65 10.22Q67.35 11.19 67.35 12.41L67.35 12.41L67.35 12.41Q67.35 15.63 68.88 16.26L68.88 16.26L68.88 16.26Q69.21 16.40 69.58 16.40L69.58 16.40L69.58 16.40Q69.95 16.40 70.24 16.30L70.24 16.30L70.24 16.30Q70.53 16.21 70.72 16.05L70.72 16.05L70.72 16.05Q70.92 15.90 71.08 15.69L71.08 15.69L71.08 15.69Q71.23 15.48 71.32 15.26L71.32 15.26L71.32 15.26Q71.42 15.05 71.47 14.82L71.47 14.82L71.47 14.82Q71.57 14.42 71.57 14.08L71.57 14.08L73.10 14.29L73.10 14.29Q72.79 15.61 72.02 16.57L72.02 16.57L72.02 16.57Q71.05 17.77 69.58 17.77L69.58 17.77L69.58 17.77Q67.78 17.77 66.68 16.06L66.68 16.06L66.68 16.06Q66.06 15.09 65.82 13.70ZM79.53 12.19L79.53 12.19L79.53 17.60L78.07 17.60L78.07 12.57L78.07 12.57Q78.07 12.08 77.77 11.79L77.77 11.79L77.77 11.79Q77.47 11.50 77.06 11.50L77.06 11.50L77.06 11.50Q76.65 11.50 76.25 11.74L76.25 11.74L76.25 11.74Q75.84 11.98 75.65 12.22L75.65 12.22L75.65 17.60L74.18 17.60L74.18 7.24L75.65 7.24L75.65 11.15L75.65 11.15Q76.54 10.26 77.49 10.26L77.49 10.26L77.49 10.26Q78.35 10.26 78.92 10.71L78.92 10.71L78.92 10.71Q79.53 11.20 79.53 12.19ZM82.13 15.74L82.13 15.74L82.13 15.74Q82.13 16.14 82.33 16.32L82.33 16.32L82.33 16.32Q82.52 16.50 82.82 16.50L82.82 16.50L82.82 16.50Q83.11 16.50 83.26 16.47L83.26 16.47L83.26 16.47Q83.41 16.43 83.55 16.37L83.55 16.37L83.80 16.24L83.80 16.24Q83.91 16.17 84.05 16.06L84.05 16.06L84.25 15.91L84.25 15.91Q84.30 15.86 84.42 15.75L84.42 15.75L84.55 15.63L84.55 13.95L84.55 13.95Q83.02 14.30 82.54 14.71L82.54 14.71L82.54 14.71Q82.13 15.08 82.13 15.74ZM86.21 17.60L84.75 17.60L84.75 17.60Q84.55 17.47 84.55 16.96L84.55 16.96L84.42 17.11L84.42 17.11Q83.83 17.74 82.74 17.74L82.74 17.74L82.74 17.74Q81.41 17.74 80.92 16.80L80.92 16.80L80.92 16.80Q80.66 16.34 80.66 15.73L80.66 15.73L80.66 15.73Q80.66 15.12 80.88 14.65L80.88 14.65L80.88 14.65Q81.09 14.17 81.58 13.81L81.58 13.81L81.58 13.81Q82.46 13.15 84.55 12.74L84.55 12.74L84.55 12.74Q84.55 12.25 84.52 12.14L84.52 12.14L84.52 12.14Q84.49 12.03 84.45 11.94L84.45 11.94L84.45 11.94Q84.41 11.84 84.36 11.79L84.36 11.79L84.36 11.79Q84.30 11.74 84.22 11.68L84.22 11.68L84.22 11.68Q84.14 11.61 84.03 11.59L84.03 11.59L84.03 11.59Q83.76 11.52 83.44 11.52L83.44 11.52L83.44 11.52Q83.11 11.52 82.83 11.62L82.83 11.62L82.83 11.62Q82.54 11.72 82.38 11.84L82.38 11.84L82.38 11.84Q82.21 11.96 82.07 12.13L82.07 12.13L82.07 12.13Q81.89 12.35 81.82 12.51L81.82 12.51L80.86 11.92L80.86 11.92Q81.16 11.30 81.38 11.09L81.38 11.09L81.38 11.09Q81.60 10.88 81.81 10.73L81.81 10.73L81.81 10.73Q82.02 10.58 82.26 10.49L82.26 10.49L82.26 10.49Q82.84 10.28 83.43 10.28L83.43 10.28L83.43 10.28Q84.03 10.28 84.38 10.35L84.38 10.35L84.38 10.35Q84.73 10.41 85.05 10.58L85.05 10.58L85.05 10.58Q85.37 10.75 85.57 11.03L85.57 11.03L85.57 11.03Q86.01 11.63 86.01 12.80L86.01 12.80L86.01 16.58L86.01 16.58Q86.01 16.77 86.08 17.12L86.08 17.12L86.08 17.12Q86.15 17.47 86.21 17.60L86.21 17.60ZM88.82 10.38L88.82 11.15L88.82 11.15Q89.71 10.26 90.79 10.26L90.79 10.26L90.79 10.26Q91.44 10.26 91.93 10.51L91.93 10.51L91.93 10.51Q92.42 10.77 92.65 11.28L92.65 11.28L92.65 11.28Q93.67 10.26 94.68 10.26L94.68 10.26L94.68 10.26Q95.55 10.26 96.17 10.71L96.17 10.71L96.17 10.71Q96.85 11.20 96.85 12.19L96.85 12.19L96.85 17.60L95.39 17.60L95.39 12.57L95.39 12.57Q95.39 12.09 95.03 11.79L95.03 11.79L95.03 11.79Q94.68 11.50 94.26 11.50L94.26 11.50L94.26 11.50Q93.84 11.50 93.43 11.74L93.43 11.74L93.43 11.74Q93.03 11.98 92.83 12.22L92.83 12.22L92.83 17.60L91.37 17.60L91.37 12.57L91.37 12.57Q91.37 12.08 91.07 11.79L91.07 11.79L91.07 11.79Q90.77 11.50 90.36 11.50L90.36 11.50L90.36 11.50Q89.95 11.50 89.48 11.75L89.48 11.75L89.48 11.75Q89.00 12.00 88.82 12.22L88.82 12.22L88.82 17.60L87.36 17.60L87.36 10.38L88.82 10.38ZM101.07 11.50L101.07 11.50L101.07 11.50Q100.27 11.50 99.59 12.20L99.59 12.20L99.59 15.65L99.59 15.65Q99.60 15.65 99.69 15.77L99.69 15.77L99.69 15.77Q99.78 15.89 99.88 16.00L99.88 16.00L99.88 16.00Q99.98 16.10 100.14 16.21L100.14 16.21L100.14 16.21Q100.48 16.48 100.94 16.48L100.94 16.48L100.94 16.48Q101.39 16.48 101.68 16.35L101.68 16.35L101.68 16.35Q101.96 16.23 102.14 16.02L102.14 16.02L102.14 16.02Q102.31 15.82 102.41 15.50L102.41 15.50L102.41 15.50Q102.59 14.96 102.59 14.21L102.59 14.21L102.59 14.21Q102.59 13.45 102.50 12.97L102.50 12.97L102.50 12.97Q102.41 12.49 102.27 12.21L102.27 12.21L102.27 12.21Q102.13 11.94 101.92 11.77L101.92 11.77L101.92 11.77Q101.58 11.50 101.07 11.50ZM99.59 17.06L99.59 17.06L99.59 17.06Q99.54 17.60 99.48 17.60L99.48 17.60L97.94 17.60L97.94 17.60Q98.13 17.16 98.13 16.62L98.13 16.62L98.13 7.24L99.59 7.24L99.59 10.86L99.59 10.86Q99.72 10.68 100.11 10.47L100.11 10.47L100.11 10.47Q100.50 10.26 101.03 10.26L101.03 10.26L101.03 10.26Q101.56 10.26 102.01 10.38L102.01 10.38L102.01 10.38Q102.45 10.50 102.76 10.70L102.76 10.70L102.76 10.70Q103.07 10.90 103.31 11.19L103.31 11.19L103.31 11.19Q103.54 11.49 103.68 11.81L103.68 11.81L103.68 11.81Q103.82 12.13 103.91 12.54L103.91 12.54L103.91 12.54Q104.05 13.23 104.05 13.94L104.05 13.94L104.05 13.94Q104.05 14.65 103.95 15.15L103.95 15.15L103.95 15.15Q103.84 15.65 103.62 16.12L103.62 16.12L103.62 16.12Q103.39 16.59 103.05 16.95L103.05 16.95L103.05 16.95Q102.31 17.72 101.11 17.72L101.11 17.72L101.11 17.72Q100.11 17.72 99.59 17.06ZM106.31 13.14L106.31 13.14L108.83 13.14L108.83 13.14Q108.83 12.61 108.65 12.22L108.65 12.22L108.65 12.22Q108.29 11.50 107.67 11.50L107.67 11.50L107.67 11.50Q107.29 11.50 107.01 11.67L107.01 11.67L107.01 11.67Q106.72 11.83 106.58 12.10L106.58 12.10L106.58 12.10Q106.31 12.60 106.31 13.14ZM105.16 16.20L105.16 16.20L105.16 16.20Q104.95 15.73 104.86 15.23L104.86 15.23L104.86 15.23Q104.77 14.74 104.77 13.98L104.77 13.98L104.77 13.98Q104.77 13.23 104.95 12.52L104.95 12.52L104.95 12.52Q105.13 11.81 105.41 11.39L105.41 11.39L105.41 11.39Q105.69 10.96 106.09 10.71L106.09 10.71L106.09 10.71Q106.76 10.26 107.68 10.26L107.68 10.26L107.68 10.26Q108.54 10.26 109.18 10.77L109.18 10.77L109.18 10.77Q110.39 11.74 110.33 14.38L110.33 14.38L106.24 14.38L106.24 14.38Q106.24 15.76 106.97 16.24L106.97 16.24L106.97 16.24Q107.34 16.48 107.76 16.48L107.76 16.48L107.76 16.48Q108.17 16.48 108.45 16.38L108.45 16.38L108.45 16.38Q108.72 16.28 108.88 16.15L108.88 16.15L108.88 16.15Q109.05 16.02 109.18 15.85L109.18 15.85L109.18 15.85Q109.37 15.61 109.44 15.44L109.44 15.44L110.37 16.04L110.37 16.04Q109.86 16.92 109.29 17.29L109.29 17.29L109.29 17.29Q108.65 17.72 107.89 17.72L107.89 17.72L107.89 17.72Q107.13 17.72 106.59 17.52L106.59 17.52L106.59 17.52Q106.05 17.32 105.71 16.99L105.71 16.99L105.71 16.99Q105.38 16.67 105.16 16.20ZM112.98 17.60L111.52 17.60L111.52 10.38L112.98 10.38L112.98 11.38L112.98 11.38Q113.01 11.34 113.11 11.20L113.11 11.20L113.27 10.95L113.27 10.95Q113.78 10.26 114.94 10.26L114.94 10.26L114.94 10.26Q115.06 10.26 115.19 10.28L115.19 10.28L115.19 11.50L115.19 11.50Q113.94 11.53 113.39 12.20L113.39 12.20L113.39 12.20Q113.15 12.50 112.98 12.97L112.98 12.97L112.98 17.60Z"></path></g><!----><g data-v-423bf9ae="" id="a994bc99-028b-4a60-b771-d5b9fb326a04" transform="matrix(1.0000050862630208,0,0,1.0000050862630208,206.9375050875242,-4.00048319615113)" stroke="none" fill="black"><path d="M83.062 77.302C62.657 105.493 29.92 91.555 29.92 91.555c19.861-27.257 53.142-14.253 53.142-14.253zM67.131 71.58s13.205-16.749 11.46-28.608c0 0-42.128 2.288-50.312 48.583-.001 0 8.952-20.494 38.852-19.975zM56.492 47.132S53.513 20.605 36.99 5c0 0-36.533 23.407-10.977 86.555 0 0 4.344-34.643 30.479-44.423z"></path></g><!----></svg>